<mxfile host="65bd71144e">
    <diagram id="4auaeIVryt9doBE4dfaZ" name="PrivateKey">
        <mxGraphModel dx="3491" dy="2173" grid="1" gridSize="10" guides="1" tooltips="1" connect="1" arrows="1" fold="1" page="1" pageScale="1" pageWidth="5000" pageHeight="4000" math="0" shadow="0">
            <root>
                <mxCell id="0"/>
                <mxCell id="1" parent="0"/>
                <mxCell id="X4RcyLCs09kKXuaWOzOV-1" style="edgeStyle=none;html=1;fontSize=50;strokeWidth=3;" edge="1" parent="1" source="X4RcyLCs09kKXuaWOzOV-7" target="X4RcyLCs09kKXuaWOzOV-6">
                    <mxGeometry relative="1" as="geometry">
                        <mxPoint x="1630" y="1600" as="sourcePoint"/>
                    </mxGeometry>
                </mxCell>
                <mxCell id="X4RcyLCs09kKXuaWOzOV-5" style="edgeStyle=none;html=1;strokeWidth=3;fontSize=50;" edge="1" parent="1" source="X4RcyLCs09kKXuaWOzOV-6" target="X4RcyLCs09kKXuaWOzOV-9">
                    <mxGeometry relative="1" as="geometry"/>
                </mxCell>
                <mxCell id="X4RcyLCs09kKXuaWOzOV-6" value="Mã hóa" style="rounded=1;whiteSpace=wrap;html=1;fontSize=50;strokeWidth=3;" vertex="1" parent="1">
                    <mxGeometry x="1870" y="1470" width="420" height="260" as="geometry"/>
                </mxCell>
                <mxCell id="X4RcyLCs09kKXuaWOzOV-7" value="Thông tin" style="text;html=1;align=center;verticalAlign=middle;resizable=0;points=[];autosize=1;strokeColor=none;fillColor=none;fontSize=50;" vertex="1" parent="1">
                    <mxGeometry x="1420" y="1565" width="230" height="70" as="geometry"/>
                </mxCell>
                <mxCell id="X4RcyLCs09kKXuaWOzOV-8" style="edgeStyle=none;html=1;strokeWidth=3;fontSize=50;" edge="1" parent="1" source="X4RcyLCs09kKXuaWOzOV-9" target="X4RcyLCs09kKXuaWOzOV-11">
                    <mxGeometry relative="1" as="geometry"/>
                </mxCell>
                <mxCell id="X4RcyLCs09kKXuaWOzOV-9" value="mật mã" style="text;html=1;align=center;verticalAlign=middle;resizable=0;points=[];autosize=1;strokeColor=none;fillColor=none;fontSize=50;" vertex="1" parent="1">
                    <mxGeometry x="2450" y="1565" width="190" height="70" as="geometry"/>
                </mxCell>
                <mxCell id="X4RcyLCs09kKXuaWOzOV-10" style="edgeStyle=none;html=1;strokeWidth=3;fontSize=50;" edge="1" parent="1" source="X4RcyLCs09kKXuaWOzOV-11" target="X4RcyLCs09kKXuaWOzOV-13">
                    <mxGeometry relative="1" as="geometry"/>
                </mxCell>
                <mxCell id="X4RcyLCs09kKXuaWOzOV-11" value="Giải mã" style="rounded=1;whiteSpace=wrap;html=1;fontSize=50;strokeWidth=3;" vertex="1" parent="1">
                    <mxGeometry x="2840" y="1470" width="420" height="260" as="geometry"/>
                </mxCell>
                <mxCell id="X4RcyLCs09kKXuaWOzOV-13" value="thông tin" style="text;html=1;align=center;verticalAlign=middle;resizable=0;points=[];autosize=1;strokeColor=none;fillColor=none;fontSize=50;" vertex="1" parent="1">
                    <mxGeometry x="3425" y="1565" width="220" height="70" as="geometry"/>
                </mxCell>
                <mxCell id="X4RcyLCs09kKXuaWOzOV-21" style="edgeStyle=none;html=1;entryX=0.5;entryY=1;entryDx=0;entryDy=0;strokeWidth=3;fontSize=50;" edge="1" parent="1" source="X4RcyLCs09kKXuaWOzOV-18" target="X4RcyLCs09kKXuaWOzOV-11">
                    <mxGeometry relative="1" as="geometry">
                        <Array as="points">
                            <mxPoint x="3050" y="1890"/>
                        </Array>
                    </mxGeometry>
                </mxCell>
                <mxCell id="X4RcyLCs09kKXuaWOzOV-22" style="edgeStyle=none;html=1;entryX=0.5;entryY=1;entryDx=0;entryDy=0;strokeWidth=3;fontSize=50;" edge="1" parent="1" source="X4RcyLCs09kKXuaWOzOV-18" target="X4RcyLCs09kKXuaWOzOV-6">
                    <mxGeometry relative="1" as="geometry">
                        <Array as="points">
                            <mxPoint x="2080" y="1890"/>
                        </Array>
                    </mxGeometry>
                </mxCell>
                <mxCell id="X4RcyLCs09kKXuaWOzOV-18" value="" style="aspect=fixed;perimeter=ellipsePerimeter;html=1;align=center;shadow=0;dashed=0;spacingTop=3;image;image=img/lib/active_directory/key.svg;strokeWidth=3;fontSize=50;" vertex="1" parent="1">
                    <mxGeometry x="2490" y="1840" width="135.14" height="100" as="geometry"/>
                </mxCell>
                <mxCell id="X4RcyLCs09kKXuaWOzOV-19" value="khóa cá nhân" style="text;html=1;align=center;verticalAlign=middle;resizable=0;points=[];autosize=1;strokeColor=none;fillColor=none;fontSize=50;" vertex="1" parent="1">
                    <mxGeometry x="2397.57" y="1960" width="320" height="70" as="geometry"/>
                </mxCell>
            </root>
        </mxGraphModel>
    </diagram>
    <diagram id="UPQx56seP4YynTGKXPmv" name="PublicKey">
        <mxGraphModel dx="3491" dy="2173" grid="1" gridSize="10" guides="1" tooltips="1" connect="1" arrows="1" fold="1" page="1" pageScale="1" pageWidth="5000" pageHeight="4000" math="0" shadow="0">
            <root>
                <mxCell id="0"/>
                <mxCell id="1" parent="0"/>
                <mxCell id="8" style="edgeStyle=none;html=1;fontSize=50;strokeWidth=3;" edge="1" parent="1" source="10" target="7">
                    <mxGeometry relative="1" as="geometry">
                        <mxPoint x="1630" y="1600" as="sourcePoint"/>
                    </mxGeometry>
                </mxCell>
                <mxCell id="6" value="" style="group;strokeWidth=3;" vertex="1" connectable="0" parent="1">
                    <mxGeometry x="1945" y="1900" width="310" height="285" as="geometry"/>
                </mxCell>
                <mxCell id="4" value="" style="sketch=0;aspect=fixed;pointerEvents=1;shadow=0;dashed=0;html=1;strokeColor=none;labelPosition=center;verticalLabelPosition=bottom;verticalAlign=top;align=center;fillColor=#00188D;shape=mxgraph.mscae.enterprise.key_permissions;fontSize=50;strokeWidth=3;" vertex="1" parent="6">
                    <mxGeometry x="85" width="100" height="192.31" as="geometry"/>
                </mxCell>
                <mxCell id="5" value="Khóa công khai" style="text;html=1;align=center;verticalAlign=middle;resizable=0;points=[];autosize=1;strokeColor=none;fillColor=none;fontSize=50;strokeWidth=3;" vertex="1" parent="6">
                    <mxGeometry x="-60" y="215" width="370" height="70" as="geometry"/>
                </mxCell>
                <mxCell id="13" style="edgeStyle=none;html=1;strokeWidth=3;fontSize=50;" edge="1" parent="1" source="7" target="12">
                    <mxGeometry relative="1" as="geometry"/>
                </mxCell>
                <mxCell id="7" value="Mã hóa" style="rounded=1;whiteSpace=wrap;html=1;fontSize=50;strokeWidth=3;" vertex="1" parent="1">
                    <mxGeometry x="1870" y="1470" width="420" height="260" as="geometry"/>
                </mxCell>
                <mxCell id="10" value="Thông tin" style="text;html=1;align=center;verticalAlign=middle;resizable=0;points=[];autosize=1;strokeColor=none;fillColor=none;fontSize=50;" vertex="1" parent="1">
                    <mxGeometry x="1420" y="1565" width="230" height="70" as="geometry"/>
                </mxCell>
                <mxCell id="15" style="edgeStyle=none;html=1;strokeWidth=3;fontSize=50;" edge="1" parent="1" source="12" target="14">
                    <mxGeometry relative="1" as="geometry"/>
                </mxCell>
                <mxCell id="12" value="mật mã" style="text;html=1;align=center;verticalAlign=middle;resizable=0;points=[];autosize=1;strokeColor=none;fillColor=none;fontSize=50;" vertex="1" parent="1">
                    <mxGeometry x="2450" y="1565" width="190" height="70" as="geometry"/>
                </mxCell>
                <mxCell id="20" style="edgeStyle=none;html=1;strokeWidth=3;fontSize=50;" edge="1" parent="1" source="14" target="19">
                    <mxGeometry relative="1" as="geometry"/>
                </mxCell>
                <mxCell id="14" value="Giải mã" style="rounded=1;whiteSpace=wrap;html=1;fontSize=50;strokeWidth=3;" vertex="1" parent="1">
                    <mxGeometry x="2840" y="1470" width="420" height="260" as="geometry"/>
                </mxCell>
                <mxCell id="17" style="edgeStyle=none;html=1;entryX=0.5;entryY=1;entryDx=0;entryDy=0;strokeWidth=3;fontSize=50;" edge="1" parent="1" source="4" target="7">
                    <mxGeometry relative="1" as="geometry"/>
                </mxCell>
                <mxCell id="19" value="thông tin" style="text;html=1;align=center;verticalAlign=middle;resizable=0;points=[];autosize=1;strokeColor=none;fillColor=none;fontSize=50;" vertex="1" parent="1">
                    <mxGeometry x="3425" y="1565" width="220" height="70" as="geometry"/>
                </mxCell>
                <mxCell id="21" value="" style="group" vertex="1" connectable="0" parent="1">
                    <mxGeometry x="2870" y="1907.5" width="330" height="270" as="geometry"/>
                </mxCell>
                <mxCell id="16" value="" style="sketch=0;aspect=fixed;html=1;points=[];align=center;image;fontSize=12;image=img/lib/mscae/Key.svg;strokeWidth=3;" vertex="1" parent="21">
                    <mxGeometry x="125" width="105.4" height="170" as="geometry"/>
                </mxCell>
                <mxCell id="18" value="Khóa cá nhân" style="text;html=1;align=center;verticalAlign=middle;resizable=0;points=[];autosize=1;strokeColor=none;fillColor=none;fontSize=50;strokeWidth=3;" vertex="1" parent="21">
                    <mxGeometry y="200" width="330" height="70" as="geometry"/>
                </mxCell>
                <mxCell id="22" style="edgeStyle=none;html=1;entryX=0.5;entryY=1;entryDx=0;entryDy=0;strokeWidth=3;fontSize=50;" edge="1" parent="1" source="16" target="14">
                    <mxGeometry relative="1" as="geometry"/>
                </mxCell>
            </root>
        </mxGraphModel>
    </diagram>
</mxfile>